<svg width="200" height="187" viewBox="0 0 200 187" fill="none" xmlns="http://www.w3.org/2000/svg">
<path d="M51.7857 84.5541H37.5V92.0184H51.7857V84.5541Z" fill="#010002"/>
<path d="M194.643 95.7505H26.7857V83.1956C28.8286 81.7811 34.3536 80.027 36.5357 80.027C37.2286 80.027 37.8821 80.3965 38.2679 80.8219H49.2643C48.8929 74.2608 43.2429 68.8306 36.5357 68.8306C34.1036 68.8306 16.0714 71.5737 16.0714 81.8147V95.7505H5.35714C2.39643 95.7505 0 98.2585 0 101.349C0 104.439 2.39643 106.947 5.35714 106.947H194.643C197.6 106.947 200 104.439 200 101.349C200 98.2585 197.6 95.7505 194.643 95.7505Z" fill="#010002"/>
<path d="M0.910645 113.717C0.910645 113.717 7.99636 116.385 12.0856 131.049C14.7749 140.693 9.01064 159.966 33.8249 172.035C33.8214 172.121 33.8071 172.241 33.8035 172.323L33.2356 184.706C33.1392 186.763 34.4106 187.535 36.0749 186.427L46.0535 179.78C46.9321 179.194 48.0678 178.343 49.0571 177.387C60.3678 180.265 75.2928 182.161 95.0714 182.56L94.7785 182.65C96.1928 182.65 97.4999 182.616 98.8714 182.601C100.243 182.616 101.55 182.65 102.964 182.65L102.568 182.56C122.821 182.165 138.057 180.19 149.564 177.208C150.589 178.231 151.8 179.156 152.732 179.776L162.714 186.423C164.375 187.531 165.646 186.759 165.553 184.702L164.982 172.319C164.975 172.136 164.95 171.901 164.939 171.696C189.368 159.611 184.304 140.6 186.968 131.042C191.061 116.378 197.271 113.71 197.271 113.71L98.2142 113.049L0.910645 113.717Z" fill="#010002"/>
<path d="M68.9321 56.2756C69.8714 56.9623 70.9393 57.3877 72.0928 57.3877C75.1428 57.3877 77.6786 54.6446 78.3714 50.9647H73.3428C72.6786 53.2525 70.9464 55.1522 68.9321 56.2756Z" fill="#010002"/>
<path d="M73.4287 47.2327H78.4287C77.8073 43.4259 75.2109 40.5708 72.093 40.5708C70.9359 40.5708 69.868 40.9963 68.9287 41.683C71.0109 42.8511 72.818 44.8404 73.4287 47.2327Z" fill="#010002"/>
<path d="M71.1823 62.9748C78.5644 62.9748 84.5715 56.6974 84.5715 48.983C84.5715 41.2687 78.5644 34.9912 71.1823 34.9912C63.8001 34.9912 57.793 41.2687 57.793 48.983C57.793 56.6974 63.8001 62.9748 71.1823 62.9748ZM65.5394 40.6156C67.1394 39.4325 69.0787 38.7234 71.1858 38.7234C76.0251 38.7234 80.0358 42.4107 80.8358 47.2326C80.9287 47.8037 81.0037 48.3821 81.0037 48.983C81.0037 49.6623 80.9323 50.3229 80.8108 50.9648C79.9215 55.6747 75.9465 59.2427 71.1858 59.2427C69.0787 59.2427 67.1358 58.5298 65.5323 57.343C63.0215 55.4844 61.3644 52.439 61.3644 48.983C61.3644 45.5233 63.0215 42.4742 65.5394 40.6156Z" fill="#010002"/>
<path d="M119.518 69.6255H114.35C113.786 72.7344 111.236 75.261 108.482 76.2799C109.357 76.5897 110.286 76.7912 111.264 76.7912C115.464 76.7912 118.914 73.6749 119.518 69.6255Z" fill="#010002"/>
<path d="M114 65.8933H119.228C118.164 62.4747 115.021 59.9741 111.268 59.9741C110.289 59.9741 109.364 60.1757 108.493 60.4854C110.857 61.3625 113.064 63.3629 114 65.8933Z" fill="#010002"/>
<path d="M112.021 82.3745H112.028C119.411 82.3745 125.418 76.097 125.418 68.3827C125.418 60.6683 119.411 54.3909 112.028 54.3909C104.646 54.3909 98.6392 60.6683 98.6392 68.3827C98.6392 76.097 104.643 82.3745 112.021 82.3745ZM106.378 60.0189C107.978 58.8321 109.921 58.123 112.028 58.123C116.614 58.123 120.446 61.4409 121.518 65.8933C121.714 66.6957 121.846 67.5205 121.846 68.3827C121.846 68.8081 121.771 69.2149 121.725 69.6255C121.132 74.69 117.032 78.6423 112.021 78.6423C109.914 78.6423 107.971 77.9295 106.371 76.7427C103.864 74.8803 102.211 71.8349 102.211 68.3827C102.211 64.9267 103.868 61.8813 106.378 60.0189Z" fill="#010002"/>
<path d="M141.368 14.0576C141.368 13.9158 141.343 13.7851 141.336 13.6433H136.728C136.739 13.7851 136.782 13.9158 136.782 14.0576C136.782 17.2224 134.603 19.9469 132.003 21.38C132.911 22.0518 133.939 22.4698 135.053 22.4698C138.539 22.4661 141.368 18.7004 141.368 14.0576Z" fill="#010002"/>
<path d="M135.45 9.91116H140.518C139.429 7.37703 137.404 5.64905 135.054 5.64905C133.943 5.64905 132.914 6.06332 132.007 6.7351C133.361 7.48153 134.575 8.57505 135.45 9.91116Z" fill="#010002"/>
<path d="M134.304 28.0494C141.686 28.0494 147.697 21.7719 147.697 14.0576C147.697 6.34326 141.686 0.0657959 134.304 0.0657959C126.925 0.0657959 120.918 6.34326 120.918 14.0576C120.918 21.7719 126.925 28.0494 134.304 28.0494ZM128.657 5.69387C130.254 4.51078 132.197 3.79794 134.304 3.79794C138.304 3.79794 141.743 6.31714 143.272 9.91119C143.761 11.0607 144.036 12.3222 144.086 13.6433C144.093 13.7852 144.129 13.9158 144.129 14.0576C144.129 19.7155 139.725 24.3173 134.307 24.3173C132.2 24.3173 130.254 23.6044 128.657 22.4176C126.147 20.5553 124.493 17.5098 124.493 14.0576C124.489 10.6016 126.143 7.55248 128.657 5.69387Z" fill="#010002"/>
</svg>
