<svg width="200" height="198" viewBox="0 0 200 198" fill="none" xmlns="http://www.w3.org/2000/svg">
<path d="M51.7857 90.4919H37.5V98.4808H51.7857V90.4919Z" fill="#010002"/>
<path d="M194.643 102.475H26.7857V89.0379C28.8286 87.524 34.3536 85.6466 36.5357 85.6466C37.2286 85.6466 37.8821 86.0421 38.2679 86.4975H49.2643C48.8929 79.4752 43.2429 73.6633 36.5357 73.6633C34.1036 73.6633 16.0714 76.5992 16.0714 87.56V102.475H5.35714C2.39643 102.475 0 105.159 0 108.467C0 111.774 2.39643 114.458 5.35714 114.458H194.643C197.6 114.458 200 111.774 200 108.467C200 105.159 197.6 102.475 194.643 102.475Z" fill="#010002"/>
<path d="M0.910645 121.705C0.910645 121.705 7.99636 124.561 12.0856 140.255C14.7749 150.576 9.01064 171.204 33.8249 184.122C33.8214 184.213 33.8071 184.341 33.8035 184.429L33.2356 197.683C33.1392 199.884 34.4106 200.71 36.0749 199.524L46.0535 192.41C46.9321 191.783 48.0678 190.872 49.0571 189.85C60.3678 192.929 75.2928 194.958 95.0714 195.386L94.7785 195.482C96.1928 195.482 97.4999 195.446 98.8714 195.43C100.243 195.446 101.55 195.482 102.964 195.482L102.568 195.386C122.821 194.962 138.057 192.849 149.564 189.658C150.589 190.752 151.8 191.743 152.732 192.406L162.714 199.52C164.375 200.706 165.646 199.88 165.553 197.679L164.982 184.425C164.975 184.229 164.95 183.978 164.939 183.758C189.368 170.824 184.304 150.476 186.968 140.247C191.061 124.553 197.271 121.697 197.271 121.697L98.2142 120.99L0.910645 121.705Z" fill="#010002"/>
<path d="M68.9321 60.2261C69.8714 60.961 70.9393 61.4164 72.0928 61.4164C75.1428 61.4164 77.6786 58.4805 78.3714 54.542H73.3428C72.6786 56.9906 70.9464 59.0237 68.9321 60.2261Z" fill="#010002"/>
<path d="M73.4287 50.5475H78.4287C77.8073 46.4732 75.2109 43.4175 72.093 43.4175C70.9359 43.4175 69.868 43.8728 68.9287 44.6078C71.0109 45.8581 72.818 47.9871 73.4287 50.5475Z" fill="#010002"/>
<path d="M71.1823 67.3961C78.5644 67.3961 84.5715 60.6774 84.5715 52.4209C84.5715 44.1644 78.5644 37.4458 71.1823 37.4458C63.8001 37.4458 57.793 44.1644 57.793 52.4209C57.793 60.6774 63.8001 67.3961 71.1823 67.3961ZM65.5394 43.4654C67.1394 42.1992 69.0787 41.4402 71.1858 41.4402C76.0251 41.4402 80.0358 45.3867 80.8358 50.5475C80.9287 51.1587 81.0037 51.7778 81.0037 52.4209C81.0037 53.1479 80.9323 53.8549 80.8108 54.542C79.9215 59.583 75.9465 63.4016 71.1858 63.4016C69.0787 63.4016 67.1358 62.6387 65.5323 61.3685C63.0215 59.3792 61.3644 56.1198 61.3644 52.4209C61.3644 48.7181 63.0215 45.4546 65.5394 43.4654Z" fill="#010002"/>
<path d="M119.518 74.5142H114.35C113.786 77.8415 111.236 80.5458 108.482 81.6362C109.357 81.9678 110.286 82.1835 111.264 82.1835C115.464 82.1835 118.914 78.8481 119.518 74.5142Z" fill="#010002"/>
<path d="M114 70.5197H119.228C118.164 66.8608 115.021 64.1846 111.268 64.1846C110.289 64.1846 109.364 64.4003 108.493 64.7318C110.857 65.6705 113.064 67.8115 114 70.5197Z" fill="#010002"/>
<path d="M112.021 88.159H112.028C119.411 88.159 125.418 81.4404 125.418 73.1839C125.418 64.9274 119.411 58.2087 112.028 58.2087C104.646 58.2087 98.6392 64.9274 98.6392 73.1839C98.6392 81.4404 104.643 88.159 112.021 88.159ZM106.378 64.2323C107.978 62.9621 109.921 62.2032 112.028 62.2032C116.614 62.2032 120.446 65.7542 121.518 70.5196C121.714 71.3784 121.846 72.2612 121.846 73.1839C121.846 73.6392 121.771 74.0746 121.725 74.514C121.132 79.9345 117.032 84.1646 112.021 84.1646C109.914 84.1646 107.971 83.4016 106.371 82.1314C103.864 80.1382 102.211 76.8787 102.211 73.1839C102.211 69.485 103.868 66.2256 106.378 64.2323Z" fill="#010002"/>
<path d="M141.368 15.041C141.368 14.8893 141.343 14.7494 141.336 14.5977H136.728C136.739 14.7494 136.782 14.8893 136.782 15.041C136.782 18.4283 134.603 21.3443 132.003 22.8781C132.911 23.5971 133.939 24.0445 135.053 24.0445C138.539 24.0405 141.368 20.0101 141.368 15.041Z" fill="#010002"/>
<path d="M135.45 10.6031H140.518C139.429 7.89093 137.404 6.0415 135.054 6.0415C133.943 6.0415 132.914 6.48489 132.007 7.20388C133.361 8.00277 134.575 9.17314 135.45 10.6031Z" fill="#010002"/>
<path d="M134.304 30.0162C141.686 30.0162 147.697 23.2975 147.697 15.0411C147.697 6.78456 141.686 0.065918 134.304 0.065918C126.925 0.065918 120.918 6.78456 120.918 15.0411C120.918 23.2975 126.925 30.0162 134.304 30.0162ZM128.657 6.08952C130.254 4.82329 132.197 4.06035 134.304 4.06035C138.304 4.06035 141.743 6.7566 143.272 10.6032C143.761 11.8335 144.036 13.1836 144.086 14.5977C144.093 14.7495 144.129 14.8893 144.129 15.0411C144.129 21.0966 139.725 26.0217 134.307 26.0217C132.2 26.0217 130.254 25.2588 128.657 23.9886C126.147 21.9954 124.493 18.7359 124.493 15.0411C124.489 11.3422 126.143 8.07875 128.657 6.08952Z" fill="#010002"/>
</svg>
