<svg width="239" height="300" viewBox="0 0 239 300" fill="none" xmlns="http://www.w3.org/2000/svg">
<path d="M183.334 239.896H55.6655V269.22H183.334V239.896Z" fill="black"/>
<path d="M188.396 58.1449C184.516 58.1449 180.753 58.7033 177.127 59.7469C181.278 67.5381 184.458 76.217 186.434 85.51H178.346C170.68 53.833 147.238 30.7799 119.5 30.7799C91.762 30.7799 68.3199 53.833 60.6542 85.51H52.5655C54.5419 76.2176 57.7222 67.5381 61.8725 59.7469C58.2474 58.7033 54.4841 58.1449 50.6036 58.1449C22.6541 58.1449 0 86.5817 0 121.655C0 156.738 22.6541 185.184 50.6036 185.184C52.3102 185.184 53.9953 185.074 55.6655 184.863V228.177H183.334V184.863C185.005 185.074 186.69 185.184 188.396 185.184C216.346 185.184 239 156.738 239 121.655C239 86.5817 216.346 58.1449 188.396 58.1449ZM99.6467 212.539H91.8642V159.768H99.6467V212.539ZM147.136 212.539H139.353V159.768H147.136V212.539Z" fill="black"/>
</svg>
