<svg width="200" height="180" viewBox="0 0 200 180" fill="none" xmlns="http://www.w3.org/2000/svg">
<path d="M153.418 175.923H46.582V200.52H153.418V175.923Z" fill="black"/>
<path d="M157.654 23.4734C154.407 23.4734 151.257 23.9418 148.224 24.8171C151.697 31.3522 154.358 38.632 156.012 46.4268H149.243C142.829 19.8566 123.212 0.52002 100 0.52002C76.7883 0.52002 57.1715 19.8566 50.7566 46.4268H43.9879C45.6418 38.6325 48.3031 31.3522 51.7762 24.8171C48.7426 23.9418 45.5934 23.4734 42.3461 23.4734C18.9574 23.4734 0 47.3257 0 76.7449C0 106.172 18.9574 130.032 42.3461 130.032C43.7742 130.032 45.1844 129.939 46.582 129.763V166.094H153.418V129.763C154.816 129.939 156.226 130.032 157.654 130.032C181.043 130.032 200 106.172 200 76.7449C200 47.3257 181.043 23.4734 157.654 23.4734ZM83.3863 152.977H76.8738V108.713H83.3863V152.977ZM123.126 152.977H116.614V108.713H123.126V152.977Z" fill="black"/>
</svg>
