<svg width="201" height="178" viewBox="0 0 201 178" fill="none" xmlns="http://www.w3.org/2000/svg">
<path d="M113.993 89.9583C113.129 72.5083 111.98 63.1333 100.49 51.675C85.8376 36.8333 80.3775 22.5083 92.4467 0.375C95.6088 15.2167 96.7578 28.5 108.248 36.575C119.738 44.65 129.215 66.525 113.993 89.9583ZM92.4559 89.9583C91.8768 80.5833 91.3069 75.8917 84.9827 69.3833C77.2246 61.5667 74.0625 54.0167 80.6716 42.0417C82.3998 50.1167 82.6847 57.15 88.9997 61.3167C95.3147 65.4833 100.775 77.4667 92.4467 89.9667L92.4559 89.9583ZM144.447 172.25H196.731C199.893 172.25 201.042 174.333 199.029 176.675C199.029 176.675 178.632 200.375 150.486 200.375H49.6574L1.11384 176.675C-0.899237 174.333 -0.0351785 172.25 3.12691 172.25H54.8326C47.6535 168.867 37.0183 154.017 37.0183 135.533V96.4667H162.84V99.5917C166.866 96.4667 171.747 94.9 176.913 94.9C184.092 94.9 197.595 101.675 197.595 113.392C197.595 130.317 185.241 136.567 178.062 141C178.062 141 164.559 150.633 155.082 161.833C151.92 166.783 148.188 170.692 144.456 172.25H144.447ZM176.904 101.942C172.308 101.942 166.563 103.767 162.831 112.1V133.717C162.831 136.583 162.546 139.967 161.967 142.833C168.291 137.1 175.755 133.2 175.755 133.2C180.351 130.333 189.543 124.867 189.543 114.192C189.828 106.642 182.07 101.942 176.904 101.942ZM58.8403 105.067H50.7972V115.742H58.8403V105.067ZM58.8403 121.992H50.7972V139.442C50.7972 139.442 53.0953 162.883 69.4664 169.908C59.4103 159.233 58.8403 146.992 58.8403 139.442V121.992Z" fill="black"/>
</svg>
