<svg width="243" height="203" viewBox="0 0 243 203" fill="none" xmlns="http://www.w3.org/2000/svg">
<path d="M132.177 93.5703C131.463 80.2865 130.514 73.1498 121.022 64.4271C108.917 53.1289 104.407 42.224 114.377 25.375C116.989 36.6732 117.939 46.7852 127.431 52.9322C136.923 59.0793 144.752 75.7317 132.177 93.5703ZM114.385 93.5703C113.906 86.4336 113.435 82.8621 108.211 77.9076C101.802 71.9572 99.1896 66.2097 104.65 57.0938C106.077 63.2408 106.313 68.595 111.529 71.7668C116.746 74.9387 121.257 84.061 114.377 93.5767L114.385 93.5703ZM157.335 156.215H200.528C203.14 156.215 204.09 157.801 202.427 159.583C202.427 159.583 185.576 177.625 162.324 177.625H79.0282L38.9256 159.583C37.2626 157.801 37.9764 156.215 40.5886 156.215H83.3035C77.3727 153.639 68.5868 142.335 68.5868 128.264V98.5248H172.53V100.904C175.856 98.5248 179.888 97.3322 184.156 97.3322C190.087 97.3322 201.242 102.49 201.242 111.409C201.242 124.293 191.036 129.051 185.105 132.426C185.105 132.426 173.95 139.759 166.121 148.285C163.509 152.053 160.426 155.029 157.343 156.215H157.335ZM184.148 102.693C180.352 102.693 175.605 104.082 172.522 110.426V126.881C172.522 129.064 172.287 131.639 171.809 133.821C177.033 129.457 183.199 126.488 183.199 126.488C186.996 124.306 194.59 120.144 194.59 112.018C194.825 106.271 188.416 102.693 184.148 102.693ZM86.6143 105.072H79.9698V113.198H86.6143V105.072ZM86.6143 117.956H79.9698V131.239C79.9698 131.239 81.8682 149.084 95.3927 154.432C87.0852 146.306 86.6143 136.987 86.6143 131.239V117.956Z" fill="black"/>
</svg>
