<svg width="177" height="172" viewBox="0 0 177 172" fill="none" xmlns="http://www.w3.org/2000/svg">
<g clip-path="url(#clip0_38_85)">
<path d="M118.402 0C116.368 0 114.427 0.367516 112.608 1.13177C102.03 5.57723 98.6285 22.2051 102.738 42.2875C103.719 42.0325 104.708 41.8047 105.706 41.6311L156.928 32.722C145.698 12.9359 130.463 0 118.402 0Z" fill="black"/>
<path d="M176.938 61.9643C176.625 58.3708 175.106 55.3131 172.78 53.1117C170.673 51.1166 167.904 49.8266 164.765 49.4802C164.203 49.4184 163.631 49.3828 163.046 49.3828C162.098 49.3828 161.125 49.4658 160.131 49.6391L116.316 57.2592L116.477 57.3711L126.654 64.4298L136.829 71.4875L175.648 98.4122C176.109 98.7317 176.558 99.0629 176.998 99.4019L176.999 63.3602C176.999 62.8862 176.977 62.4212 176.938 61.9643Z" fill="black"/>
<path d="M27.4539 98.1851C14.3818 98.1851 4.48054 101.975 1.1649 109.428C-4.28545 121.677 9.87455 139.749 33.6721 152.501L42.8394 102.724C43.0188 101.75 43.2467 100.787 43.5101 99.8315C37.8267 98.7336 32.4113 98.1851 27.4539 98.1851Z" fill="black"/>
<path d="M73.0327 136.039L65.7712 126.152L58.509 116.266L58.3631 116.067L51.0819 155.607C50.7957 157.161 50.7521 158.665 50.9174 160.092C51.2707 163.15 52.5982 165.847 54.6551 167.899C56.9195 170.159 60.0647 171.631 63.7616 171.936C64.2332 171.975 64.7109 172 65.2001 172H99.4448L73.0327 136.039Z" fill="black"/>
<path d="M168.778 115.593C167.854 114.426 166.719 113.35 165.365 112.412L112.171 75.5153C112.171 75.5153 105.906 71.17 105.905 71.1696C101.403 68.0478 94.8256 66.9936 89.4634 68.2799C83.9712 69.5975 79.6489 73.2981 75.8026 77.1446C72.655 80.2924 69.8745 83.9759 68.7108 88.2769C67.2416 93.7074 68.2376 99.9041 71.6113 104.496L77.1826 112.081L114.05 162.277C114.916 163.456 115.898 164.464 116.957 165.308C117.456 165.705 117.972 166.067 118.503 166.389C122.85 169.026 128.451 169.026 132.848 166.527C134.013 165.865 135.085 165.052 136.046 164.131C136.073 164.105 136.101 164.081 136.128 164.054L167.198 133.862C167.418 133.648 167.629 133.429 167.833 133.209C170.254 130.589 171.522 127.516 171.681 124.448C171.843 121.336 170.862 118.227 168.778 115.593Z" fill="black"/>
</g>
<defs>
<clipPath id="clip0_38_85">
<rect width="177" height="172" fill="white"/>
</clipPath>
</defs>
</svg>
