<svg width="200" height="200" viewBox="0 0 200 200" fill="none" xmlns="http://www.w3.org/2000/svg">
<g clip-path="url(#clip0_42_205)">
<path d="M133.787 0C131.489 0 129.296 0.427344 127.241 1.31602C115.288 6.48516 111.444 25.8199 116.088 49.1715C117.197 48.875 118.314 48.6102 119.442 48.4082L177.319 38.0488C164.63 15.0418 147.416 0 133.787 0Z" fill="black"/>
<path d="M199.929 72.0516C199.576 67.873 197.86 64.3176 195.232 61.7578C192.851 59.4379 189.721 57.9379 186.174 57.5352C185.54 57.4633 184.893 57.4219 184.233 57.4219C183.162 57.4219 182.062 57.5184 180.938 57.7199L131.431 66.5805L131.613 66.7106L143.111 74.9184L154.609 83.125L198.472 114.433C198.993 114.804 199.5 115.189 199.998 115.584L199.999 73.6746C199.999 73.1234 199.974 72.5828 199.929 72.0516Z" fill="black"/>
<path d="M31.0213 114.169C16.2506 114.169 5.0627 118.576 1.31621 127.241C-4.84238 141.485 11.1576 162.498 38.0475 177.327L48.4061 119.446C48.6088 118.314 48.8662 117.194 49.1639 116.083C42.742 114.807 36.6229 114.169 31.0213 114.169Z" fill="black"/>
<path d="M82.5224 158.185L74.3174 146.689L66.1115 135.193L65.9467 134.961L57.7193 180.938C57.3959 182.746 57.3466 184.494 57.5334 186.154C57.9326 189.709 59.4326 192.845 61.7568 195.232C64.3154 197.859 67.8693 199.571 72.0466 199.926C72.5795 199.971 73.1193 200 73.672 200H112.367L82.5224 158.185Z" fill="black"/>
<path d="M190.709 134.41C189.666 133.053 188.383 131.803 186.853 130.711L126.747 87.8085C126.747 87.8085 119.667 82.7558 119.666 82.7554C114.579 79.1253 107.147 77.8995 101.088 79.3952C94.8826 80.9273 89.9986 85.2304 85.6525 89.703C82.0959 93.3632 78.9541 97.6464 77.6392 102.648C75.9791 108.962 77.1045 116.168 80.9166 121.507L87.2119 130.327L128.87 188.694C129.849 190.065 130.958 191.237 132.155 192.218C132.719 192.68 133.301 193.101 133.902 193.476C138.813 196.541 145.143 196.542 150.111 193.636C151.428 192.866 152.639 191.921 153.724 190.85C153.754 190.819 153.786 190.792 153.817 190.761L188.924 155.653C189.173 155.404 189.411 155.15 189.641 154.894C192.377 151.847 193.81 148.275 193.99 144.707C194.172 141.088 193.064 137.473 190.709 134.41Z" fill="black"/>
</g>
<defs>
<clipPath id="clip0_42_205">
<rect width="200" height="200" fill="white"/>
</clipPath>
</defs>
</svg>
