<svg width="322" height="245" viewBox="0 0 322 245" fill="none" xmlns="http://www.w3.org/2000/svg">
<path d="M100.625 141.641V145.469C100.625 147.583 98.3722 149.297 95.5937 149.297H80.6547L95.444 194.308C96.117 196.356 94.4787 198.435 91.7838 198.947C91.3737 199.025 90.9631 199.063 90.5581 199.063C88.3053 199.063 86.2538 197.904 85.6815 196.161C85.3079 195.024 70.5299 150.47 70.5324 149.297H55.2821C55.2827 150.482 35.4558 195.316 34.9609 196.445C34.2584 198.05 32.2955 199.063 30.1875 199.063C29.6617 199.063 29.124 198.999 28.5957 198.865C25.9599 198.199 24.5348 196.031 25.4141 194.023L45.0083 149.297H30.1875C27.4089 149.297 25.1562 147.583 25.1562 145.469V137.175V133.985V111.016V103.997V76.5627C25.1562 74.4486 27.4089 72.7345 30.1875 72.7345H35.2187C43.5549 72.7345 50.3125 77.8762 50.3125 84.2189V103.36C50.3125 109.702 43.5549 114.844 35.2187 114.844V130.156H85.5312C93.8674 130.156 100.625 135.298 100.625 141.641ZM152.66 93.0643C157.262 96.6043 164.738 96.6043 169.34 93.0643L189.779 77.3427C197.232 71.6105 198.514 62.3986 192.052 55.9985C184.244 48.2652 169.708 47.7474 160.999 54.4457C152.291 47.7474 137.754 48.2647 129.947 55.9985C123.485 62.3991 124.768 71.6105 132.22 77.3427L152.66 93.0643ZM291.812 72.7345H286.781C278.445 72.7345 271.687 77.8762 271.687 84.2189V103.36C271.687 109.702 278.445 114.844 286.781 114.844V130.156H236.469C228.133 130.156 221.375 135.298 221.375 141.641V145.469C221.375 147.583 223.628 149.297 226.406 149.297H241.345L226.556 194.308C225.883 196.356 227.521 198.435 230.216 198.947C230.626 199.025 231.037 199.063 231.442 199.063C233.695 199.063 235.746 197.904 236.318 196.161C236.693 195.024 251.47 150.47 251.467 149.297H266.717C266.717 150.482 286.543 195.316 287.038 196.445C287.741 198.049 289.704 199.062 291.812 199.062C292.338 199.062 292.875 198.999 293.404 198.864C296.039 198.198 297.464 196.03 296.585 194.023L276.992 149.297H291.812C294.591 149.297 296.844 147.583 296.844 145.469V135.261V133.985V111.016V109.74V76.5627C296.844 74.4486 294.591 72.7345 291.812 72.7345ZM174.411 133.985C169.377 133.985 167.124 135.271 164.009 137.046C160.423 139.095 155.956 141.641 147.572 141.641C139.189 141.641 134.726 139.095 131.141 137.046C128.026 135.271 125.779 133.985 120.75 133.985V145.469C120.75 147.583 123.003 149.297 125.781 149.297H152.195V179.922H133.112C127.555 179.922 123.05 183.35 123.05 187.578V191.406C123.05 193.52 125.303 195.235 128.081 195.235H193.919C196.697 195.235 198.95 193.52 198.95 191.406V187.578C198.95 183.35 194.445 179.922 188.888 179.922H169.805V149.297H196.219C198.997 149.297 201.25 147.583 201.25 145.469V141.641C192.863 141.641 188.399 139.095 184.81 137.046C181.695 135.271 179.442 133.985 174.411 133.985ZM181.125 111.016H140.875C129.76 111.016 120.75 117.871 120.75 126.328C129.132 126.328 133.596 128.874 137.18 130.923C140.295 132.699 142.543 133.985 147.572 133.985C152.603 133.985 154.856 132.698 157.971 130.923C161.56 128.874 166.024 126.328 174.411 126.328C182.795 126.328 187.262 128.874 190.848 130.923C193.963 132.699 196.216 133.985 201.25 133.985V126.328C201.25 117.871 192.24 111.016 181.125 111.016Z" fill="black"/>
</svg>
