<svg width="200" height="200" viewBox="0 0 200 200" fill="none" xmlns="http://www.w3.org/2000/svg">
<path d="M55.5563 123.068V128.197C55.5563 131.03 53.898 133.326 51.8526 133.326H40.8556L51.7425 193.629C52.2378 196.374 51.0318 199.159 49.0481 199.845C48.7462 199.95 48.4439 200 48.1457 200C46.4874 200 44.9773 198.447 44.556 196.113C44.281 194.589 33.4024 134.897 33.4043 133.325H22.178C22.1785 134.914 7.58326 194.98 7.21891 196.493C6.70179 198.643 5.2569 200 3.70506 200C3.31803 200 2.9222 199.915 2.53332 199.735C0.593065 198.843 -0.455998 195.938 0.191217 193.249L14.6151 133.326H3.70506C1.65972 133.326 0.00140407 131.03 0.00140407 128.197V117.085V112.811V82.0383V72.6353V35.8794C0.00140407 33.047 1.65972 30.7506 3.70506 30.7506H7.40872C13.5452 30.7506 18.5197 37.6392 18.5197 46.1369V71.7808C18.5197 80.2785 13.5452 87.1671 7.40872 87.1671V107.682H44.4453C50.5818 107.682 55.5563 114.571 55.5563 123.068ZM93.861 57.9876C97.2489 62.7304 102.752 62.7304 106.14 57.9876L121.186 36.9244C126.672 29.2447 127.616 16.9029 122.859 8.32827C117.111 -2.03248 106.41 -2.72615 99.9998 6.24791C93.5892 -2.72615 82.8884 -2.03313 77.1412 8.32827C72.3843 16.9036 73.3288 29.2447 78.8144 36.9244L93.861 57.9876ZM196.295 30.7506H192.592C186.455 30.7506 181.481 37.6392 181.481 46.1369V71.7808C181.481 80.2785 186.455 87.1671 192.592 87.1671V107.682H155.555C149.419 107.682 144.444 114.571 144.444 123.068V128.197C144.444 131.03 146.102 133.326 148.148 133.326H159.145L148.258 193.629C147.763 196.374 148.969 199.159 150.952 199.845C151.254 199.95 151.557 200 151.855 200C153.513 200 155.023 198.447 155.444 196.113C155.72 194.589 166.598 134.897 166.596 133.325H177.822C177.822 134.914 192.417 194.98 192.781 196.493C193.298 198.642 194.743 199.999 196.295 199.999C196.682 199.999 197.078 199.914 197.467 199.734C199.407 198.842 200.456 195.937 199.809 193.248L185.385 133.326H196.295C198.341 133.326 199.999 131.03 199.999 128.197V114.521V112.811V82.0383V80.3285V35.8794C199.999 33.047 198.341 30.7506 196.295 30.7506ZM109.872 112.811C106.167 112.811 104.509 114.534 102.215 116.913C99.5752 119.658 96.2873 123.068 90.1152 123.068C83.9449 123.068 80.6588 119.658 78.0204 116.913C75.7274 114.534 74.0728 112.811 70.371 112.811V128.197C70.371 131.03 72.0293 133.326 74.0746 133.326H93.5188V174.356H79.4713C75.3806 174.356 72.064 178.948 72.064 184.614V189.742C72.064 192.575 73.7223 194.871 75.7676 194.871H124.233C126.278 194.871 127.936 192.575 127.936 189.742V184.614C127.936 178.948 124.62 174.356 120.529 174.356H106.482V133.326H125.926C127.971 133.326 129.63 131.03 129.63 128.197V123.068C123.456 123.068 120.169 119.658 117.527 116.913C115.234 114.534 113.576 112.811 109.872 112.811ZM114.815 82.0383H85.1856C77.0037 82.0383 70.371 91.2233 70.371 102.553C76.5412 102.553 79.8273 105.964 82.4657 108.709C84.7587 111.088 86.4134 112.811 90.1152 112.811C93.8188 112.811 95.4771 111.088 97.7702 108.709C100.412 105.965 103.698 102.553 109.872 102.553C116.044 102.553 119.332 105.964 121.973 108.709C124.266 111.088 125.924 112.811 129.63 112.811V102.553C129.63 91.2233 122.997 82.0383 114.815 82.0383Z" fill="black"/>
</svg>
