<svg width="200" height="200" viewBox="0 0 200 200" fill="none" xmlns="http://www.w3.org/2000/svg">
<g clip-path="url(#clip0_42_267)">
<path d="M108.838 154.006C105.95 154.412 103 154.626 100 154.626C97.0001 154.626 94.0506 154.412 91.161 154.006L80.6108 166.394C86.8115 167.997 93.3065 168.86 100 168.86C106.694 168.86 113.189 167.997 119.389 166.394L108.838 154.006Z" fill="black"/>
<path d="M23.1636 101.943C25.6996 120.312 34.6875 136.644 47.7629 148.575L56.5804 137.355C45.5925 126.994 38.2962 112.761 36.9023 96.8557H88.4074L96.0814 87.0907C97.0255 85.8894 98.4707 85.1877 99.9986 85.1877C101.527 85.1877 102.972 85.8894 103.916 87.0907L111.59 96.8557H163.095C161.702 112.76 154.405 126.994 143.417 137.355L152.235 148.576C164.49 137.394 173.154 122.346 176.283 105.378C169.974 102.982 165.478 96.8772 165.478 89.7385C165.478 82.8193 169.702 76.8671 175.707 74.3264C173.419 64.0981 169.102 54.6288 163.207 46.358C161.776 46.7567 160.272 46.9749 158.716 46.9749C149.494 46.9749 141.99 39.4712 141.99 30.2489C141.99 28.9183 142.15 27.6254 142.445 26.385C134.104 20.9102 124.652 16.9984 114.504 15.0698C111.615 20.0941 106.197 23.4873 99.9973 23.4873C93.7973 23.4873 88.3791 20.0941 85.4902 15.0698C75.342 16.9978 65.8908 20.9102 57.5494 26.385C57.8444 27.6261 58.0047 28.919 58.0047 30.2489C58.0047 39.4712 50.5009 46.9749 41.2787 46.9749C39.7218 46.9749 38.2168 46.7567 36.7865 46.3567C30.2047 55.5924 25.604 66.3271 23.5818 77.9372C26.5986 80.9641 28.4673 85.1365 28.4673 89.7378C28.4693 94.5486 26.4255 98.8894 23.1636 101.943ZM149.52 51.8274C156.464 60.5237 161.166 71.0819 162.751 82.6213H118.726L149.52 51.8274ZM107.117 28.3378C119.259 29.7015 130.371 34.5096 139.454 41.7614L107.117 74.0981V28.3378ZM92.8828 28.3378V74.0974L60.5461 41.7607C69.6282 34.5096 80.7407 29.7015 92.8828 28.3378ZM50.4801 51.8274L81.274 82.6213H37.2484C38.8336 71.0819 43.536 60.5237 50.4801 51.8274Z" fill="black"/>
<path d="M182.206 96.5003C185.935 96.5003 188.968 93.4673 188.968 89.7387C188.968 86.0107 185.935 82.9771 182.206 82.9771C178.478 82.9771 175.444 86.0107 175.444 89.7387C175.444 93.4673 178.478 96.5003 182.206 96.5003Z" fill="black"/>
<path d="M188.078 185.765H168.79L100 98.2329L31.2101 185.765H11.9219C7.99122 185.765 4.80469 188.952 4.80469 192.882C4.80469 196.813 7.99122 199.999 11.9219 199.999H188.078C192.009 199.999 195.195 196.813 195.195 192.882C195.195 188.952 192.009 185.765 188.078 185.765ZM96.2067 132.713C97.1535 131.601 98.5394 130.96 100 130.96C101.461 130.96 102.846 131.601 103.793 132.713L146.915 185.765H53.0848L96.2067 132.713Z" fill="black"/>
<path d="M158.718 37.0105C162.447 37.0105 165.48 33.9769 165.48 30.2489C165.48 26.5203 162.447 23.4873 158.718 23.4873C154.99 23.4873 151.957 26.5203 151.957 30.2489C151.957 33.9769 154.99 37.0105 158.718 37.0105Z" fill="black"/>
<path d="M11.7433 96.5003C15.4713 96.5003 18.5049 93.4673 18.5049 89.7387C18.5049 86.0107 15.4713 82.9771 11.7433 82.9771C8.01536 82.9771 4.98169 86.0107 4.98169 89.7387C4.98169 93.4673 8.01536 96.5003 11.7433 96.5003Z" fill="black"/>
<path d="M41.2814 37.0105C45.0093 37.0105 48.043 33.9769 48.043 30.2489C48.043 26.5203 45.0093 23.4873 41.2814 23.4873C37.5528 23.4873 34.5198 26.5203 34.5198 30.2489C34.5198 33.9769 37.5528 37.0105 41.2814 37.0105Z" fill="black"/>
<path d="M99.9999 13.5232C103.728 13.5232 106.762 10.4896 106.762 6.76162C106.762 3.033 103.728 0 99.9999 0C96.272 0 93.2383 3.033 93.2383 6.76162C93.2383 10.4896 96.272 13.5232 99.9999 13.5232Z" fill="black"/>
</g>
<defs>
<clipPath id="clip0_42_267">
<rect width="200" height="200" fill="white"/>
</clipPath>
</defs>
</svg>
