<svg width="258" height="240" viewBox="0 0 258 240" fill="none" xmlns="http://www.w3.org/2000/svg">
<g clip-path="url(#clip0_39_167)">
<path d="M140.401 184.807C136.675 185.295 132.87 185.551 129 185.551C125.13 185.551 121.325 185.295 117.598 184.807L103.988 199.674C111.987 201.597 120.365 202.633 129 202.633C137.635 202.633 146.013 201.597 154.012 199.674L140.401 184.807Z" fill="black"/>
<path d="M29.8811 122.332C33.1526 144.374 44.7469 163.972 61.6142 178.29L72.9888 164.827C58.8145 152.393 49.4022 135.313 47.6041 116.227H114.046L123.945 104.509C125.163 103.067 127.027 102.225 128.998 102.225C130.969 102.225 132.834 103.067 134.051 104.509L143.951 116.227H210.393C208.595 135.312 199.183 152.393 185.008 164.827L196.383 178.292C212.192 164.873 223.369 146.815 227.405 126.454C219.267 123.578 213.467 116.253 213.467 107.686C213.467 99.3834 218.915 92.2408 226.662 89.1919C223.711 76.9179 218.141 65.5547 210.537 55.6298C208.692 56.1082 206.751 56.3701 204.743 56.3701C192.847 56.3701 183.167 47.3656 183.167 36.2989C183.167 34.7022 183.374 33.1507 183.754 31.6622C172.994 25.0925 160.802 20.3983 147.711 18.084C143.984 24.1131 136.995 28.185 128.997 28.185C120.999 28.185 114.009 24.1131 110.282 18.084C97.1913 20.3975 84.9993 25.0925 74.2389 31.6622C74.6193 33.1515 74.8261 34.703 74.8261 36.2989C74.8261 47.3656 65.1463 56.3701 53.2497 56.3701C51.2412 56.3701 49.2997 56.1082 47.4546 55.6282C38.9641 66.7111 33.0292 79.5927 30.4206 93.5248C34.3123 97.1571 36.7229 102.164 36.7229 107.686C36.7255 113.459 34.089 118.667 29.8811 122.332ZM192.881 62.1931C201.839 72.6286 207.905 85.2985 209.949 99.1458H153.156L192.881 62.1931ZM138.181 34.0056C153.844 35.642 168.179 41.4117 179.896 50.1139L138.181 88.9179V34.0056ZM119.819 34.0056V88.9171L78.1045 50.1131C89.8205 41.4117 104.156 35.642 119.819 34.0056ZM65.1194 62.1931L104.844 99.1458H48.0506C50.0954 85.2985 56.1615 72.6286 65.1194 62.1931Z" fill="black"/>
<path d="M235.046 115.8C239.856 115.8 243.768 112.161 243.768 107.686C243.768 103.213 239.856 99.5725 235.046 99.5725C230.237 99.5725 226.323 103.213 226.323 107.686C226.323 112.161 230.237 115.8 235.046 115.8Z" fill="black"/>
<path d="M242.621 222.918H217.739L129 117.88L40.2609 222.918H15.3791C10.3086 222.918 6.198 226.743 6.198 231.459C6.198 236.175 10.3086 239.999 15.3791 239.999H242.621C247.691 239.999 251.802 236.175 251.802 231.459C251.802 226.743 247.691 222.918 242.621 222.918ZM124.107 159.256C125.328 157.922 127.116 157.152 129 157.152C130.884 157.152 132.672 157.921 133.893 159.256L189.52 222.918H68.4794L124.107 159.256Z" fill="black"/>
<path d="M204.747 44.4129C209.557 44.4129 213.469 40.7725 213.469 36.299C213.469 31.8247 209.557 28.1851 204.747 28.1851C199.938 28.1851 196.024 31.8247 196.024 36.299C196.024 40.7725 199.938 44.4129 204.747 44.4129Z" fill="black"/>
<path d="M15.149 115.8C19.958 115.8 23.8715 112.161 23.8715 107.686C23.8715 103.213 19.958 99.5725 15.149 99.5725C10.3399 99.5725 6.42651 103.213 6.42651 107.686C6.42651 112.161 10.3399 115.8 15.149 115.8Z" fill="black"/>
<path d="M53.253 44.4129C58.0621 44.4129 61.9755 40.7725 61.9755 36.299C61.9755 31.8247 58.0621 28.1851 53.253 28.1851C48.4431 28.1851 44.5305 31.8247 44.5305 36.299C44.5305 40.7725 48.4431 44.4129 53.253 44.4129Z" fill="black"/>
<path d="M129 16.2279C133.809 16.2279 137.722 12.5875 137.722 8.11394C137.722 3.6396 133.809 0 129 0C124.191 0 120.277 3.6396 120.277 8.11394C120.277 12.5875 124.191 16.2279 129 16.2279Z" fill="black"/>
</g>
<defs>
<clipPath id="clip0_39_167">
<rect width="258" height="240" fill="white"/>
</clipPath>
</defs>
</svg>
