<svg width="200" height="200" viewBox="0 0 200 200" fill="none" xmlns="http://www.w3.org/2000/svg">
<g clip-path="url(#clip0_42_199)">
<path d="M20.2487 176.149C27.3207 174.768 31.9326 167.913 30.5588 160.852C26.5813 140.379 20.3153 81.6717 38.8539 56.1031C39.4987 55.22 39.9929 54.2773 40.3889 53.3101C50.5764 39.1135 63.9634 28.0779 80.0174 20.8972C89.0449 16.8601 81.2299 3.63422 72.269 7.63632C57.2944 14.3334 44.44 24.3702 33.9371 36.6849C28.3615 34.0004 21.4928 35.588 17.7255 40.7781C-10.7904 80.0877 3.24502 157.179 4.94118 165.849C6.15723 172.073 11.6172 176.39 17.7325 176.39C18.5595 176.39 19.4006 176.31 20.2487 176.149Z" fill="#010002"/>
<path d="M20.6693 32.3884C28.866 32.3884 35.5107 25.7437 35.5107 17.547C35.5107 9.3503 28.866 2.70557 20.6693 2.70557C12.4726 2.70557 5.82788 9.3503 5.82788 17.547C5.82788 25.7437 12.4726 32.3884 20.6693 32.3884Z" fill="#010002"/>
<path d="M166.764 164.615V156.012C69.2867 156.012 15.0936 187.486 12.8333 188.831L17.8587 197.298C18.3248 197.025 59.9999 172.833 134.771 167.079V194.841H200V164.615H166.764Z" fill="#010002"/>
</g>
<defs>
<clipPath id="clip0_42_199">
<rect width="200" height="200" fill="white"/>
</clipPath>
</defs>
</svg>
