<svg width="195" height="172" viewBox="0 0 195 172" fill="none" xmlns="http://www.w3.org/2000/svg">
<path d="M19.7425 153.011C26.6377 151.796 31.1343 145.764 29.7948 139.549C25.9167 121.533 19.8074 69.8711 37.8825 47.3707C38.5112 46.5936 38.993 45.764 39.3791 44.9128C49.3119 32.4198 62.3643 22.7085 78.0169 16.3896C86.8188 12.8369 79.1992 1.19811 70.4623 4.71996C55.862 10.6134 43.329 19.4457 33.0887 30.2827C27.6525 27.9204 20.9554 29.3174 17.2823 33.8847C-10.5206 68.4772 3.16387 136.318 4.81762 143.947C6.00327 149.424 11.3267 153.224 17.2892 153.224C18.0955 153.224 18.9156 153.153 19.7425 153.011Z" fill="#010002"/>
<path d="M20.1525 26.5018C28.1443 26.5018 34.6229 20.6544 34.6229 13.4413C34.6229 6.22822 28.1443 0.380859 20.1525 0.380859C12.1607 0.380859 5.68213 6.22822 5.68213 13.4413C5.68213 20.6544 12.1607 26.5018 20.1525 26.5018Z" fill="#010002"/>
<path d="M162.594 142.862V135.291C67.5546 135.291 14.7163 162.987 12.5125 164.172L17.4122 171.622C17.8667 171.382 58.4999 150.093 131.402 145.03V169.46H195V142.862H162.594Z" fill="#010002"/>
</svg>
