<svg width="200" height="200" viewBox="0 0 200 200" fill="none" xmlns="http://www.w3.org/2000/svg">
<path d="M63.7998 130.703C74.2996 130.793 85.3173 130.809 96.4088 130.703C96.241 120.994 95.7318 111.686 95.0374 103.119C85.7577 102.785 75.7321 102.77 65.1625 103.225C64.4729 111.763 63.9676 121.036 63.7998 130.703Z" fill="black"/>
<path d="M34.4608 154.764C34.0263 148.055 33.8227 141.528 33.7955 135.224C26.6883 135.065 20.2406 134.891 14.725 134.723C14.6978 140.166 14.9102 145.859 15.4145 151.707C21.8583 152.928 28.2188 153.952 34.4608 154.764Z" fill="black"/>
<path d="M39.7354 130.362C45.4595 130.476 51.5503 130.575 57.868 130.649C58.031 121.115 58.5227 111.982 59.1851 103.532C53.233 103.885 47.1335 104.382 40.8943 105.08C40.2649 112.809 39.8285 121.32 39.7354 130.362Z" fill="black"/>
<path d="M40.455 155.485C46.5497 156.167 52.525 156.672 58.3462 157.032C57.9427 149.795 57.7895 142.634 57.8205 135.622C51.5135 135.55 45.445 135.451 39.7354 135.345C39.7625 141.839 39.9827 148.563 40.455 155.485Z" fill="black"/>
<path d="M95.9093 157.46C96.3341 150.106 96.4931 142.809 96.4543 135.679C91.0318 135.731 85.6141 135.759 80.275 135.759C74.6662 135.759 69.1418 135.732 63.7552 135.686C63.7232 142.779 63.8706 150.034 64.2964 157.35C75.5197 157.859 86.1291 157.844 95.9093 157.46Z" fill="black"/>
<path d="M126.144 84.5991C126.823 89.4181 127.465 94.8165 128.009 100.716C135.024 101.568 141.082 102.509 146.069 103.385C145 96.5694 143.766 90.9784 142.77 86.9761C138.067 86.1822 132.485 85.3557 126.144 84.5991Z" fill="black"/>
<path d="M34.8965 105.796C28.8668 106.574 22.7295 107.538 16.5097 108.691C15.6746 114.986 15.0297 122.071 14.8027 129.747C20.3 129.914 26.7098 130.085 33.8073 130.24C33.8956 121.528 34.3039 113.321 34.8965 105.796Z" fill="black"/>
<path d="M40.8491 160.532C41.2972 165.823 41.8859 171.201 42.6599 176.64C48.6692 177.277 54.5437 177.74 60.2795 178.058C59.5851 172.732 59.0642 167.371 58.6802 162.023C52.8629 161.678 46.9215 161.192 40.8491 160.532Z" fill="black"/>
<path d="M63.857 198.349C62.7164 193.339 61.7747 188.235 60.992 183.081C55.2688 182.777 49.4176 182.352 43.4199 181.742C44.0242 185.451 44.7186 189.183 45.4925 192.927C51.2623 195.323 57.4181 197.151 63.857 198.349Z" fill="black"/>
<path d="M152.229 104.533C154.234 104.928 155.923 105.284 157.303 105.587C155.428 101.761 153.153 98.1086 150.522 94.6614C151.106 97.6162 151.691 100.917 152.229 104.533Z" fill="black"/>
<path d="M44.0474 78.8228C50.1469 78.2141 56.13 77.7631 61.9424 77.4673C62.601 72.5199 63.2508 68.2396 63.8211 64.703C57.418 65.8976 51.301 67.7122 45.5613 70.0844C45.0948 72.5589 44.5701 75.4909 44.0474 78.8228Z" fill="black"/>
<path d="M37.2061 84.6023C31.7351 85.2703 26.1884 86.074 20.5554 87.0451C19.5594 91.0523 18.3354 96.6368 17.2646 103.44C23.3797 102.348 29.3997 101.457 35.3343 100.715C35.8794 94.8165 36.5282 89.4213 37.2061 84.6023Z" fill="black"/>
<path d="M96.3032 64.1626C96.8919 67.7748 97.5641 72.2013 98.2546 77.3592C105.805 77.6891 112.859 78.2108 119.309 78.8423C118.784 75.5072 118.259 72.5711 117.788 70.0966C111.093 67.323 103.876 65.3117 96.3032 64.1626Z" fill="black"/>
<path d="M152.04 166.324C154.624 162.664 156.815 158.791 158.558 154.74C157.258 155.04 155.566 155.408 153.484 155.833C153.111 159.285 152.637 162.786 152.04 166.324Z" fill="black"/>
<path d="M15.9399 156.896C16.5645 162.251 17.45 167.713 18.6604 173.249C24.7231 174.334 30.6917 175.206 36.5642 175.931C35.8242 170.489 35.2627 165.118 34.8349 159.831C28.6394 159.053 22.3362 158.071 15.9399 156.896Z" fill="black"/>
<path d="M9.85375 155.735C8.14775 155.386 6.44078 155.026 4.72314 154.65C6.47958 158.754 8.69476 162.671 11.3095 166.369C10.7053 162.782 10.2233 159.228 9.85375 155.735Z" fill="black"/>
<path d="M37.3303 181.04C32.5614 180.471 27.7499 179.834 22.8501 179.045C27.6122 183.175 32.9736 186.812 38.8374 189.843C38.2759 186.899 37.7851 183.963 37.3303 181.04Z" fill="black"/>
<path d="M12.835 94.6215C10.1688 98.1053 7.86541 101.803 5.97998 105.679C7.69374 105.312 9.40459 104.951 11.1067 104.61C11.6469 100.953 12.2395 97.6079 12.835 94.6215Z" fill="black"/>
<path d="M65.5952 98.2264C75.8341 97.8071 85.5639 97.8193 94.6098 98.1338C94.0919 92.3786 93.4984 86.9948 92.8961 82.136C84.8568 81.8914 76.2929 81.8873 67.3109 82.2173C66.7028 87.0793 66.1141 92.4713 65.5952 98.2264Z" fill="black"/>
<path d="M98.8901 82.3651C99.4876 87.2459 100.071 92.6297 100.581 98.3816C108.319 98.7709 115.488 99.3527 121.997 100.039C121.427 94.1095 120.758 88.7143 120.069 83.9335C113.62 83.2696 106.528 82.7178 98.8901 82.3651Z" fill="black"/>
<path d="M125.397 79.494C129.493 79.9645 133.304 80.4651 136.785 80.9755C132.956 78.0418 128.787 75.4137 124.342 73.1261C124.687 75.0643 125.04 77.1877 125.397 79.494Z" fill="black"/>
<path d="M41.3496 100.005C47.583 99.3381 53.664 98.8595 59.6113 98.5222C60.1205 92.7614 60.7043 87.3792 61.3018 82.4944C55.4447 82.8032 49.4267 83.2737 43.2729 83.9108C42.5969 88.6876 41.9247 94.0827 41.3496 100.005Z" fill="black"/>
<path d="M0.0185547 134.238C0.259082 139.389 1.1727 144.395 2.6983 149.196C2.94271 149.2 3.18421 149.184 3.42474 149.238C5.41879 149.693 7.3915 150.106 9.3681 150.519C8.94039 145.019 8.75902 139.672 8.78424 134.541C5.29659 134.427 2.33169 134.325 0.0185547 134.238Z" fill="black"/>
<path d="M10.3815 109.874C8.11587 110.344 5.83474 110.826 3.5439 111.349C1.4548 117.034 0.239558 123.042 0 129.246C2.30829 129.333 5.31586 129.443 8.86946 129.557C9.08477 122.458 9.6502 115.839 10.3815 109.874Z" fill="black"/>
<path d="M39.0055 73.1107C34.5315 75.4056 30.3416 78.0541 26.4941 81.0048C30.3552 80.4229 34.1687 79.9215 37.9522 79.4786C38.3081 77.1764 38.6612 75.0529 39.0055 73.1107Z" fill="black"/>
<path d="M67.9536 77.2146C76.4545 76.9204 84.5704 76.9277 92.2382 77.1447C91.5001 71.6812 90.7785 67.0353 90.1694 63.4166C89.6467 63.3695 89.0987 63.3841 88.576 63.3467C88.5808 63.246 88.6128 63.1517 88.6128 63.0477L88.6264 5.82912C88.6264 2.60941 85.517 0 81.6744 0C77.8376 0 74.7223 2.60616 74.7223 5.82506L74.7088 63.0436C74.7088 63.1363 74.7379 63.2256 74.7427 63.3183C73.1424 63.4361 71.5538 63.5645 69.9806 63.7506C69.3813 67.3344 68.6781 71.899 67.9536 77.2146Z" fill="black"/>
<path d="M191.941 178.358C202.478 154.824 200.424 136.703 198.232 127.95C196.671 121.839 189.56 117.057 182.018 117.057L133.965 117.038C130.136 117.038 126.551 118.291 123.849 120.562C121.001 122.963 119.43 126.224 119.453 129.767C119.539 139.628 116.928 152.784 114.682 162.252C112.808 161.846 110.817 161.623 108.744 161.623C97.4613 161.623 88.3115 168.142 88.3115 176.194C88.3115 184.242 97.4661 190.766 108.744 190.766C115.677 190.766 121.739 188.27 125.428 184.508C125.138 186.283 124.857 188.054 124.514 189.837C130.353 186.822 135.695 183.204 140.433 179.092C136.758 179.669 132.589 180.245 128.103 180.791C128.524 179.896 128.846 178.964 129.013 177.997L129.166 178.031C129.502 176.896 137.061 151.178 137.591 132.268L180.741 132.276C182.122 138.534 183.041 149.552 178.423 163.983C176.268 163.437 173.96 163.122 171.556 163.122C160.272 163.122 151.129 169.649 151.129 177.694C151.129 185.742 160.273 192.266 171.556 192.266C182.526 192.262 191.451 186.091 191.941 178.358Z" fill="black"/>
<path d="M81.6601 199.999C84.4689 199.999 87.2417 199.878 89.9797 199.65C90.7313 196.506 91.3937 193.32 92.0057 190.108C89.1563 188.314 86.8208 186.087 85.141 183.573C83.821 183.589 82.5563 183.637 81.2121 183.637C76.6226 183.637 71.8538 183.524 67.0103 183.346C67.8521 188.746 68.9005 194.079 70.1468 199.306C73.9109 199.753 77.7535 199.999 81.6601 199.999Z" fill="black"/>
<path d="M159.286 111.224C158.395 110.996 156.235 110.48 152.949 109.798C153.009 110.26 153.058 110.746 153.112 111.216L159.286 111.224Z" fill="black"/>
<path d="M160.626 149.188C161.748 145.635 162.518 141.959 162.944 138.201L154.488 138.197C154.433 142.236 154.298 146.351 153.968 150.599C157.616 149.826 159.657 149.301 159.774 149.263C160.057 149.192 160.346 149.192 160.626 149.188Z" fill="black"/>
<path d="M135.894 111.322L147.16 111.326C147.051 110.412 146.946 109.486 146.829 108.603C141.922 107.704 135.712 106.71 128.457 105.796C128.624 107.932 128.768 110.139 128.905 112.377C131.127 111.732 133.463 111.322 135.894 111.322Z" fill="black"/>
<path d="M148.558 138.091H146.123C145.716 142.832 145 147.748 144.154 152.48C145.485 152.25 146.748 152.025 147.929 151.805C148.333 147.095 148.495 142.54 148.558 138.091Z" fill="black"/>
<path d="M139.325 174.19C141.208 173.895 143.028 173.598 144.675 173.306C145.884 167.792 146.776 162.334 147.401 156.994C146.08 157.229 144.668 157.476 143.182 157.722C141.86 164.295 140.397 170.162 139.325 174.19Z" fill="black"/>
<path d="M114.429 129.804C114.393 124.703 116.675 119.962 120.848 116.45C121.545 115.862 122.333 115.384 123.107 114.887C122.93 111.516 122.713 108.228 122.455 105.094C115.969 104.389 108.78 103.783 101.008 103.38C101.68 111.868 102.171 121.055 102.337 130.635C106.388 130.581 110.383 130.456 114.398 130.361C114.402 130.18 114.429 129.979 114.429 129.804Z" fill="black"/>
<path d="M110.663 155.902C110.772 155.902 110.882 155.902 110.989 155.902C112.393 149.401 113.696 141.956 114.195 135.345C110.256 135.432 106.357 135.55 102.385 135.607C102.417 142.608 102.264 149.779 101.86 157.001C104.627 156.3 107.581 155.902 110.663 155.902Z" fill="black"/>
<path d="M97.2585 193.957C96.9229 195.607 96.5999 197.264 96.2246 198.896C100.123 198.311 103.915 197.485 107.6 196.456C103.871 196.142 100.377 195.27 97.2585 193.957Z" fill="black"/>
<path d="M83.5239 178.605C83.3794 177.755 83.2776 176.902 83.2776 176.029C83.2776 170.86 85.8914 166.15 90.1598 162.547C87.1997 162.619 84.2931 162.721 81.206 162.721C75.8649 162.721 70.3134 162.592 64.6348 162.342C65.0334 167.685 65.5765 173.037 66.2894 178.35C72.2511 178.589 77.9569 178.639 83.5239 178.605Z" fill="black"/>
</svg>
