<svg width="201" height="200" viewBox="0 0 201 200" fill="none" xmlns="http://www.w3.org/2000/svg">
<path d="M111.061 6.83668C111.061 3.19617 106.294 0 100.857 0C95.4197 0 90.6528 3.19617 90.6528 6.83668V34.1834H111.061V6.83668Z" fill="black"/>
<path d="M86.571 41.02H62.6852C56.7181 41.02 49.8362 43.365 49.8362 48.3625V84.269L97.8441 66.1826L101.154 64.935L104.477 66.2097L147.795 82.177V48.3625C147.795 43.365 144.995 41.02 139.027 41.02H115.142H111.06H90.6524H86.571Z" fill="black"/>
<path d="M65.7301 146.989H138.346L184.452 103.904L155.371 92.9073L151.706 91.5196L147.681 89.9985L101.195 72.418L50.8852 91.8988L46.4367 93.6219L43.465 94.7704L19.4568 104.065L65.7301 146.989Z" fill="black"/>
<path d="M0.857054 162.399C4.93846 162.399 9.29774 164.535 13.2366 167.769C17.7427 171.467 23.3633 176.072 34.1917 176.072C45.0201 176.072 50.6283 171.467 55.1344 167.769C59.0771 164.535 61.6812 162.399 67.5101 162.399C73.3428 162.399 75.9469 164.535 79.8896 167.769C84.3957 171.467 90.0082 176.072 100.837 176.072C111.665 176.072 117.273 171.467 121.779 167.769C125.722 164.535 128.326 162.399 134.155 162.399C139.992 162.399 142.595 164.535 146.542 167.772C151.048 171.471 156.66 176.072 167.493 176.072C178.326 176.072 183.951 171.467 188.46 167.772C192.403 164.535 196.775 162.399 200.856 162.399V152.143C188.611 152.143 184.399 156.744 179.893 160.443C175.946 163.677 173.33 165.817 167.493 165.817C161.656 165.817 159.052 163.68 155.109 160.443C151.925 157.832 148.15 154.803 142.416 153.227C140.028 152.571 137.338 152.143 134.15 152.143C130.052 152.143 126.709 152.803 123.881 153.825C119.236 155.5 116.008 158.146 113.203 160.446C109.261 163.68 106.656 165.816 100.828 165.816C94.9949 165.816 92.3908 163.68 88.4481 160.446C85.6438 158.146 82.4113 155.5 77.7665 153.825C74.9421 152.807 71.5953 152.143 67.4973 152.143C65.1911 152.143 63.1666 152.387 61.2932 152.752C54.3708 154.099 50.0973 157.534 46.5503 160.446C42.6114 163.68 40.0035 165.816 34.1746 165.816C28.3457 165.816 25.7378 163.68 21.7989 160.446C17.3009 156.748 13.1013 152.143 0.856201 152.143V162.399H0.857054Z" fill="black"/>
<path d="M0.857178 186.326C4.93858 186.326 9.29786 188.463 13.2367 191.697C17.7428 195.395 23.3634 200 34.1918 200C45.0202 200 50.6284 195.395 55.1345 191.697C59.0772 188.463 61.6813 186.326 67.5102 186.326C73.3429 186.326 75.947 188.463 79.8897 191.697C84.3958 195.395 90.0083 200 100.837 200C111.665 200 117.273 195.395 121.779 191.697C125.722 188.463 128.326 186.326 134.155 186.326C139.992 186.326 142.595 188.463 146.542 191.7C151.048 195.399 156.66 200 167.493 200C178.326 200 183.951 195.395 188.461 191.7C192.403 188.463 196.775 186.326 200.856 186.326V176.071C188.611 176.071 184.399 180.672 179.893 184.371C175.946 187.605 173.33 189.745 167.493 189.745C161.657 189.745 159.052 187.608 155.109 184.371C150.599 180.672 144.987 176.071 134.154 176.071C123.326 176.071 117.718 180.676 113.212 184.375C109.269 187.608 106.665 189.745 100.836 189.745C95.0036 189.745 92.3994 187.608 88.4567 184.375C83.9506 180.676 78.3382 176.071 67.5059 176.071C56.6775 176.071 51.0651 180.676 46.5589 184.375C42.6201 187.608 40.0121 189.745 34.1833 189.745C28.3544 189.745 25.7464 187.608 21.808 184.375C17.3019 180.676 13.1018 176.071 0.857178 176.071V186.326Z" fill="black"/>
</svg>
