<svg width="269" height="247" viewBox="0 0 269 247" fill="none" xmlns="http://www.w3.org/2000/svg">
<g clip-path="url(#clip0_38_66)">
<path d="M145.994 8.4433C145.994 3.94727 140.624 0 134.5 0C128.375 0 123.006 3.94727 123.006 8.4433V42.2165H145.994V8.4433Z" fill="black"/>
<path d="M118.408 50.6597H91.5024C84.7808 50.6597 77.0288 53.5558 77.0288 59.7277V104.072L131.107 81.7354L134.835 80.1947L138.578 81.769L187.372 101.489V59.7277C187.372 53.5558 184.218 50.6597 177.497 50.6597H150.591H145.994H123.005H118.408Z" fill="black"/>
<path d="M94.9323 181.531H176.73L228.665 128.322L195.906 114.74L191.778 113.027L187.244 111.148L134.882 89.436L78.2105 113.495L73.1996 115.623L69.8523 117.041L42.8086 128.52L94.9323 181.531Z" fill="black"/>
<path d="M21.8572 200.562C26.4546 200.562 31.365 203.201 35.8019 207.194C40.8777 211.762 47.2089 217.449 59.4063 217.449C71.6038 217.449 77.9211 211.762 82.9969 207.194C87.4381 203.2 90.3714 200.562 96.9373 200.562C103.507 200.562 106.441 203.201 110.882 207.194C115.958 211.762 122.28 217.449 134.477 217.449C146.675 217.449 152.992 211.762 158.068 207.194C162.509 203.2 165.442 200.562 172.008 200.562C178.583 200.562 181.516 203.201 185.962 207.198C191.037 211.766 197.359 217.449 209.561 217.449C221.764 217.449 228.1 211.762 233.18 207.198C237.621 203.2 242.545 200.562 247.143 200.562V187.897C233.349 187.897 228.605 193.579 223.529 198.147C219.083 202.141 216.136 204.784 209.561 204.784C202.987 204.784 200.053 202.145 195.612 198.147C192.025 194.922 187.773 191.182 181.313 189.235C178.624 188.424 175.594 187.897 172.003 187.897C167.387 187.897 163.621 188.712 160.435 189.974C155.203 192.043 151.566 195.31 148.408 198.151C143.966 202.145 141.033 204.783 134.467 204.783C127.897 204.783 124.964 202.144 120.523 198.151C117.364 195.31 113.723 192.042 108.49 189.974C105.309 188.716 101.539 187.897 96.9228 187.897C94.3251 187.897 92.0446 188.197 89.9344 188.648C82.1367 190.312 77.3229 194.554 73.3275 198.151C68.8906 202.145 65.9529 204.783 59.3871 204.783C52.8213 204.783 49.8836 202.144 45.4467 198.151C40.3801 193.583 35.6494 187.896 21.8562 187.896V200.562H21.8572Z" fill="black"/>
<path d="M21.8572 230.113C26.4546 230.113 31.365 232.752 35.8019 236.746C40.8777 241.313 47.2089 247 59.4064 247C71.6038 247 77.9211 241.313 82.9969 236.746C87.4381 232.752 90.3715 230.113 96.9373 230.113C103.507 230.113 106.441 232.752 110.882 236.746C115.958 241.313 122.28 247 134.477 247C146.675 247 152.992 241.313 158.068 236.746C162.509 232.752 165.442 230.113 172.008 230.113C178.583 230.113 181.516 232.752 185.962 236.75C191.037 241.318 197.359 247 209.561 247C221.764 247 228.1 241.313 233.18 236.75C237.621 232.752 242.545 230.113 247.143 230.113V217.448C233.349 217.448 228.605 223.131 223.529 227.699C219.083 231.693 216.136 234.335 209.561 234.335C202.987 234.335 200.053 231.696 195.612 227.699C190.532 223.131 184.21 217.448 172.007 217.448C159.81 217.448 153.493 223.135 148.417 227.703C143.976 231.697 141.042 234.335 134.477 234.335C127.907 234.335 124.973 231.696 120.532 227.703C115.456 223.135 109.134 217.448 96.9325 217.448C84.735 217.448 78.4129 223.135 73.3371 227.703C68.9003 231.697 65.9626 234.335 59.3968 234.335C52.8309 234.335 49.8932 231.696 45.4569 227.703C40.381 223.135 35.6499 217.448 21.8572 217.448V230.113Z" fill="black"/>
</g>
<defs>
<clipPath id="clip0_38_66">
<rect width="269" height="247" fill="white"/>
</clipPath>
</defs>
</svg>
