<svg width="282" height="232" viewBox="0 0 282 232" fill="none" xmlns="http://www.w3.org/2000/svg">
<path d="M276.049 116.893L279.037 115.725L281.859 122.944C280.072 123.642 278.105 124.411 275.882 125.28C269.284 127.859 266.457 136.42 269.572 144.39C270.605 147.032 271.561 149.48 272.394 151.609L69.1868 231.038C68.3544 228.908 67.3978 226.461 66.3651 223.818C63.2498 215.849 55.3665 211.473 48.7682 214.053C46.8616 214.798 44.7877 215.608 42.7915 216.389L39.9698 209.17L42.9581 208.001C44.6077 207.357 45.3144 205.216 44.5356 203.224C43.7568 201.231 41.7859 200.138 40.1364 200.782L37.148 201.95L34.3263 194.731L37.3146 193.563C38.9642 192.919 39.6709 190.778 38.8921 188.786C38.1133 186.793 36.1424 185.699 34.4929 186.344L31.5045 187.512L28.6828 180.293L31.6711 179.125C33.3207 178.48 34.0274 176.34 33.2486 174.347C32.4698 172.355 30.4989 171.261 28.8494 171.906L25.861 173.074L23.0393 165.855L26.0276 164.687C27.6772 164.042 28.3839 161.902 27.6051 159.909C26.8263 157.917 24.8554 156.823 23.2058 157.468L20.2175 158.636L17.3958 151.417L20.3841 150.249C22.0337 149.604 22.7404 147.464 21.9616 145.471C21.1828 143.479 19.2119 142.385 17.5623 143.03L14.574 144.198L11.7523 136.979L14.7406 135.811C16.3902 135.166 17.0969 133.025 16.3181 131.033C15.5393 129.04 13.5684 127.947 11.9188 128.591L8.93051 129.76L6.10875 122.54L9.09709 121.372C10.7467 120.728 11.4534 118.587 10.6746 116.595C9.89576 114.602 7.92491 113.508 6.27534 114.153L3.287 115.321L0.465253 108.102C2.25228 107.404 4.21861 106.635 6.44193 105.766C13.0402 103.187 15.867 94.6255 12.7518 86.6557C11.719 84.0135 10.7625 81.5662 9.93004 79.4366L213.137 0.00834967C213.97 2.13798 214.926 4.58526 215.959 7.22744C219.074 15.1973 226.957 19.5725 233.556 16.9934C235.779 16.1243 237.745 15.3558 239.532 14.6573L242.354 21.8764L239.366 23.0444C237.716 23.6892 237.01 25.8296 237.788 27.822C238.567 29.8145 240.538 30.9083 242.188 30.2635L245.176 29.0954L247.998 36.3145L245.009 37.4826C243.36 38.1274 242.653 40.2677 243.432 42.2602C244.211 44.2527 246.182 45.3465 247.831 44.7017L250.819 43.5336L253.641 50.7527L250.653 51.9208C249.003 52.5656 248.297 54.7059 249.075 56.6984C249.854 58.6909 251.825 59.7847 253.475 59.1399L256.463 57.9718L259.285 65.1909L256.296 66.359C254.647 67.0037 253.94 69.1441 254.719 71.1366C255.498 73.1291 257.469 74.2228 259.118 73.5781L262.106 72.41L264.928 79.6291L261.94 80.7972C260.29 81.4419 259.584 83.5823 260.362 85.5748C261.141 87.5672 263.112 88.661 264.762 88.0163L267.75 86.8482L270.572 94.0673L267.583 95.2354C265.934 95.8801 265.227 98.0205 266.006 100.013C266.785 102.005 268.756 103.099 270.405 102.454L273.393 101.286L276.215 108.505L273.227 109.674C271.577 110.318 270.871 112.459 271.649 114.451C272.428 116.444 274.399 117.537 276.049 116.893ZM221.269 38.4399C218.154 30.4701 210.271 26.0949 203.672 28.674L36.3253 94.0855C29.7271 96.6646 26.9003 105.226 30.0155 113.196L61.0547 192.606C64.1699 200.576 72.0533 204.951 78.6516 202.372L245.999 136.96C252.597 134.381 255.424 125.82 252.308 117.85L221.269 38.4399ZM243.177 129.741L75.8298 195.153C72.5247 196.445 68.589 194.255 67.0314 190.27L35.9922 110.86C34.4317 106.868 35.842 102.596 39.1471 101.305L206.494 35.8931C209.793 34.6036 213.732 36.7839 215.293 40.7761L246.332 120.186C247.889 124.171 246.476 128.452 243.177 129.741ZM82.5966 117.51L58.8512 126.791L60.5161 131.05L70.3896 127.191L82.8673 159.114L86.8358 157.563L74.3581 125.64L84.2554 121.771L82.5906 117.512L82.5966 117.51ZM90.8504 114.283L86.8819 115.835L101.024 152.017L104.993 150.466L90.8504 114.283ZM106.988 120.475C106.729 117.98 107.123 115.762 108.152 113.829C109.172 111.891 110.837 110.474 113.138 109.575C115.14 108.792 117.036 108.742 118.828 109.431C120.623 110.111 122.378 111.639 124.101 114.003L127.563 111.368C125.459 108.346 123.023 106.31 120.26 105.268C117.496 104.226 114.613 104.288 111.619 105.458C108.977 106.491 106.841 108.166 105.212 110.484C103.582 112.802 102.723 115.593 102.62 118.871C102.528 122.144 103.214 125.662 104.684 129.423C106.036 132.881 107.832 135.907 110.067 138.504C112.301 141.101 114.737 142.804 117.372 143.605C120.019 144.401 122.953 144.169 126.181 142.908C129.295 141.691 131.533 139.626 132.883 136.718C134.234 133.81 134.557 130.23 133.85 125.971L129.407 126.309C130.054 129.568 129.906 132.273 128.982 134.423C128.044 136.57 126.475 138.074 124.252 138.943C122.429 139.656 120.509 139.749 118.5 139.227C116.491 138.706 114.666 137.439 113.028 135.433C111.389 133.427 109.963 130.888 108.758 127.806C107.833 125.405 107.238 122.966 106.988 120.475ZM154.173 89.5322L148.806 91.63L140.934 115.346L133.936 97.4423L129.968 98.9935L144.11 135.176L148.079 133.624L143.175 121.078L145.844 113.418L163.648 127.539L168.878 125.495L147.35 109.11L154.173 89.5322ZM193.994 110.767L175.622 117.949L170.805 105.626L187.361 99.1544L185.696 94.8952L169.141 101.366L164.809 90.2849L182.482 83.377L180.817 79.1178L159.176 87.5769L173.318 123.759L195.659 115.027L193.994 110.767ZM209.529 67.895L185.784 77.1764L187.449 81.4357L197.322 77.5764L209.8 109.499L213.769 107.948L201.291 76.0252L211.188 72.1566L209.529 67.895Z" fill="black"/>
</svg>
