<svg width="200" height="162" viewBox="0 0 200 162" fill="none" xmlns="http://www.w3.org/2000/svg">
<path d="M187.948 24.6685H98.4383V10.3369C98.4383 4.62819 93.8101 0 88.1013 0H46.1275C40.4188 0 35.7906 4.62819 35.7906 10.3369V24.6691H12.0524C5.39597 24.6685 0 30.0644 0 36.7208V149.305C0 155.962 5.39597 161.358 12.0524 161.358H187.948C194.604 161.358 200 155.962 200 149.305V36.7208C200 30.0644 194.604 24.6685 187.948 24.6685ZM142.058 124.842C142.058 130.059 137.829 134.288 132.613 134.288H33.0765C27.8604 134.288 23.6309 130.058 23.6309 124.842V61.1832C23.6309 55.9671 27.8604 51.7376 33.0765 51.7376H132.613C137.829 51.7376 142.058 55.9671 142.058 61.1832V124.842ZM170.435 95.3544C165.801 95.3544 162.044 91.5966 162.044 86.9624C162.044 82.3275 165.801 78.5705 170.435 78.5705C175.07 78.5705 178.828 82.3275 178.828 86.9624C178.828 91.5973 175.07 95.3544 170.435 95.3544ZM170.435 63.055C165.801 63.055 162.044 59.2973 162.044 54.6631C162.044 50.0289 165.801 46.2718 170.435 46.2718C175.07 46.2718 178.828 50.0289 178.828 54.6631C178.828 59.298 175.07 63.055 170.435 63.055Z" fill="black"/>
<path d="M82.8443 98.3685C76.1778 98.3685 70.1315 95.6745 65.7288 91.3208C61.8174 95.5067 59.4194 101.125 59.4194 107.306V122.575C59.4194 124.964 61.3563 126.901 63.7449 126.901H101.944C104.332 126.901 106.269 124.964 106.269 122.575V107.306C106.269 101.125 103.871 95.5074 99.9604 91.3215C95.5584 95.6752 89.5107 98.3685 82.8443 98.3685Z" fill="black"/>
<path d="M82.8443 88.3014C90.7368 88.3014 97.1349 81.9032 97.1349 74.0108C97.1349 66.1183 90.7368 59.7202 82.8443 59.7202C74.9518 59.7202 68.5537 66.1183 68.5537 74.0108C68.5537 81.9032 74.9518 88.3014 82.8443 88.3014Z" fill="black"/>
</svg>
