<svg width="200" height="200" viewBox="0 0 200 200" fill="none" xmlns="http://www.w3.org/2000/svg">
<path d="M35.1622 25.3739C36.6381 22.4379 39.9754 21.551 43.6651 21.551H65.3999C61.6544 9.15438 48.7051 0 33.2639 0C14.8937 0 0 12.9372 0 28.8987C0 44.8605 14.8937 57.8016 33.2639 57.8016C41.6179 57.8016 49.2341 55.1038 55.0773 50.6837L36.842 33.5727C34.3405 31.2215 33.6813 28.3057 35.1622 25.3739Z" fill="black"/>
<path d="M129.954 99.7661V95.5679L200 29.6165H199.573H66.4811H43.6602L60.4938 45.4653L111.389 93.3825V97.31V103.52V185.038C89.5288 185.752 73.099 188.793 73.099 192.438C73.099 196.616 94.6576 200 121.252 200C147.846 200 169.404 196.616 169.404 192.438C169.404 188.729 152.39 185.651 129.954 185.006V105.505V99.7661ZM91.279 53.8129L74.2595 37.6819H167.084L147.744 53.8129H91.279Z" fill="black"/>
</svg>
