<svg width="6242" height="742" viewBox="0 0 6242 742" fill="none" xmlns="http://www.w3.org/2000/svg">
<path d="M8.49998 311C-21.636 362.392 169.8 713.121 325.783 713.121M516.088 713.121C576.776 715.087 628.619 704.532 671.513 685.556C767.487 643.097 818.662 558.479 823.869 477.623C831.403 360.631 687.698 288.681 610.962 372.118C534.226 455.555 516.088 685.556 823.869 713.121M865.5 713.121C1038 698 1113 703.446 1251 460" stroke="black" stroke-width="10" stroke-dasharray="50 50"/>
<path d="M1306 280C1332.98 145.378 1356.07 117.134 1449.5 78.4993M2982 5.49927C3090 78.4994 3204.5 5.49932 3280 5.49927M3646 264.999C3950.5 308.499 3703 486 4009.5 611.499M4346 611.499C4718.37 679.192 4981.41 645.679 5320 530.999M5704.5 383C5897 308.499 6097.64 411.827 6238 264.999" stroke="black" stroke-width="10" stroke-dasharray="50 50"/>
<path d="M1324.89 325.264L1252.3 375.832L1269.88 389.492L1324.89 325.264Z" fill="black"/>
<path d="M1287 411.922L1324.89 325.264L1274.02 393.796L1287 411.922Z" fill="black"/>
<path d="M1324.89 325.264L1252.3 375.832L1269.88 389.492L1324.89 325.264ZM1324.89 325.264L1287 411.922L1274.02 393.796L1324.89 325.264Z" stroke="black"/>
<path d="M4314.37 584.139L4070.31 554.268L4080.17 606.972L4314.37 584.139Z" fill="black"/>
<path d="M4072.4 674.305L4314.37 584.139L4080.42 621.288L4072.4 674.305Z" fill="black"/>
<path d="M4314.37 584.139L4070.31 554.268L4080.17 606.972L4314.37 584.139ZM4314.37 584.139L4072.4 674.305L4080.42 621.288L4314.37 584.139Z" stroke="black"/>
<path d="M5648.62 409.462L5402.79 413.992L5419.85 464.806L5648.62 409.462Z" fill="black"/>
<path d="M5421.49 532.57L5648.62 409.462L5422.08 478.948L5421.49 532.57Z" fill="black"/>
<path d="M5648.62 409.462L5402.79 413.992L5419.85 464.806L5648.62 409.462ZM5648.62 409.462L5421.49 532.57L5422.08 478.948L5648.62 409.462Z" stroke="black"/>
<path d="M487.539 701.5L379 686L382.983 710L487.539 701.5Z" fill="black"/>
<path d="M379 740.5L487.539 701.5L382.983 716.5L379 740.5Z" fill="black"/>
<path d="M487.539 701.5L379 686L382.983 710L487.539 701.5ZM487.539 701.5L379 740.5L382.983 716.5L487.539 701.5Z" stroke="black"/>
</svg>
