<svg width="365" height="702" viewBox="0 0 365 702" fill="none" xmlns="http://www.w3.org/2000/svg">
<path d="M363.654 674.805C300.351 710.815 262.003 706.966 190.095 674.805C118.188 642.644 44.1503 518.447 68.3243 298.793C76.915 220.733 154.404 298.584 177.148 139.671C199.893 -19.2426 115.738 -9.9313 104.541 13.5569C88.2662 34.6584 90.3435 43.7368 104.541 57.3579C86.9177 49.5709 70.3343 51.5553 67.4495 75.9782C59.9263 139.671 153.948 120.71 177.148 210.979C187.121 243.564 246.797 213.513 270.401 170.352" stroke="black" stroke-width="4" stroke-dasharray="30 30"/>
<path d="M342.824 102.137L275.43 128.126L288.219 144.008L342.824 102.137Z" fill="black"/>
<path d="M299.424 167.286L342.824 102.137L291.081 148.679L299.424 167.286Z" fill="black"/>
<path d="M342.824 102.137L275.43 128.126L288.219 144.008L342.824 102.137ZM342.824 102.137L299.424 167.286L291.081 148.679L342.824 102.137Z" stroke="black"/>
<path d="M44.1979 388.792L1 446.683L20.2834 453.313L44.1979 388.792Z" fill="black"/>
<path d="M42.1652 467.046L44.1979 388.792L25.193 455.742L42.1652 467.046Z" fill="black"/>
<path d="M44.1979 388.792L1 446.683L20.2834 453.313L44.1979 388.792ZM44.1979 388.792L42.1652 467.046L25.193 455.742L44.1979 388.792Z" stroke="black"/>
</svg>
