<svg width="6242" height="719" viewBox="0 0 6242 719" fill="none" xmlns="http://www.w3.org/2000/svg">
<path d="M8.49998 311C-21.636 362.392 169.8 713.121 325.783 713.121M516.088 713.121C576.776 715.087 628.619 704.532 671.513 685.556C767.487 643.097 818.662 558.479 823.869 477.623C831.403 360.631 687.698 288.681 610.962 372.118C534.226 455.555 516.088 685.556 823.869 713.121M1030.5 685.556C1169.5 613.47 1223 549.5 1269 442.11" stroke="black" stroke-width="10" stroke-dasharray="50 50"/>
<path d="M1301 308.499C1327.98 173.878 1356.07 117.134 1449.5 78.4993M2982 5.49927C3090 78.4994 3204.5 5.49932 3280 5.49927M3646 264.999C3950.5 308.499 3703 486 4009.5 611.499M4413.5 611.499C4785.87 679.192 4981.41 645.679 5320 530.999M5718.5 357.499C5997.78 456.673 6097.64 411.827 6238 264.999" stroke="black" stroke-width="10" stroke-dasharray="50 50"/>
</svg>
