<svg width="6174" height="742" viewBox="0 0 6174 742" fill="none" xmlns="http://www.w3.org/2000/svg">
<path d="M9.58881 442.11C-20.5472 493.502 101.8 713.121 257.783 713.121M448.088 713.121C508.776 715.087 560.619 704.532 603.513 685.556C699.488 643.097 750.662 558.479 755.869 477.623C763.403 360.631 619.698 288.681 542.962 372.118C466.226 455.555 448.088 685.556 755.869 713.121M962.5 685.556C1101.5 613.47 1155 549.5 1201 442.11" stroke="black" stroke-width="10" stroke-dasharray="50 50"/>
<path d="M1233 308.499C1259.98 173.878 1288.07 117.134 1381.5 78.4993M2914 5.49927C3022 78.4994 2994 5.49932 3069.5 5.49927M3578 264.999C3882.5 308.499 3635 486 3941.5 611.499M4345.5 611.499C4717.87 679.192 4913.41 645.679 5252 530.999M5650.5 357.499C5929.78 456.673 6029.64 411.827 6170 264.999" stroke="black" stroke-width="10" stroke-dasharray="50 50"/>
<path d="M1256.89 325.264L1184.3 375.832L1201.88 389.492L1256.89 325.264Z" fill="black"/>
<path d="M1219 411.922L1256.89 325.264L1206.02 393.796L1219 411.922Z" fill="black"/>
<path d="M1256.89 325.264L1184.3 375.832L1201.88 389.492L1256.89 325.264ZM1256.89 325.264L1219 411.922L1206.02 393.796L1256.89 325.264Z" stroke="black"/>
<path d="M4246.37 584.139L4002.31 554.268L4012.17 606.972L4246.37 584.139Z" fill="black"/>
<path d="M4004.4 674.305L4246.37 584.139L4012.42 621.288L4004.4 674.305Z" fill="black"/>
<path d="M4246.37 584.139L4002.31 554.268L4012.17 606.972L4246.37 584.139ZM4246.37 584.139L4004.4 674.305L4012.42 621.288L4246.37 584.139Z" stroke="black"/>
<path d="M5580.62 409.462L5334.79 413.992L5351.85 464.806L5580.62 409.462Z" fill="black"/>
<path d="M5353.49 532.57L5580.62 409.462L5354.08 478.948L5353.49 532.57Z" fill="black"/>
<path d="M5580.62 409.462L5334.79 413.992L5351.85 464.806L5580.62 409.462ZM5580.62 409.462L5353.49 532.57L5354.08 478.948L5580.62 409.462Z" stroke="black"/>
<path d="M419.539 701.5L311 686L314.983 710L419.539 701.5Z" fill="black"/>
<path d="M311 740.5L419.539 701.5L314.983 716.5L311 740.5Z" fill="black"/>
<path d="M419.539 701.5L311 686L314.983 710L419.539 701.5ZM419.539 701.5L311 740.5L314.983 716.5L419.539 701.5Z" stroke="black"/>
</svg>
