<svg width="5284" height="427" viewBox="0 0 5284 427" fill="none" xmlns="http://www.w3.org/2000/svg">
<path d="M946.893 10.2641L874.296 60.8315L891.881 74.4921L946.893 10.2641Z" fill="black"/>
<path d="M909.001 96.9217L946.893 10.2641L896.02 78.7965L909.001 96.9217Z" fill="black"/>
<path d="M946.893 10.2641L874.296 60.8315L891.881 74.4921L946.893 10.2641ZM946.893 10.2641L909.001 96.9217L896.02 78.7965L946.893 10.2641Z" stroke="black"/>
<path d="M3936.37 269.139L3692.31 239.268L3702.17 291.972L3936.37 269.139Z" fill="black"/>
<path d="M3694.4 359.305L3936.37 269.139L3702.42 306.288L3694.4 359.305Z" fill="black"/>
<path d="M3936.37 269.139L3692.31 239.268L3702.17 291.972L3936.37 269.139ZM3936.37 269.139L3694.4 359.305L3702.42 306.288L3936.37 269.139Z" stroke="black"/>
<path d="M5270.62 94.4619L5024.79 98.9919L5041.85 149.806L5270.62 94.4619Z" fill="black"/>
<path d="M5043.49 217.57L5270.62 94.4619L5044.08 163.948L5043.49 217.57Z" fill="black"/>
<path d="M5270.62 94.4619L5024.79 98.9919L5041.85 149.806L5270.62 94.4619ZM5270.62 94.4619L5043.49 217.57L5044.08 163.948L5270.62 94.4619Z" stroke="black"/>
<path d="M109.539 386.5L1 371L4.98307 395L109.539 386.5Z" fill="black"/>
<path d="M1 425.5L109.539 386.5L4.98307 401.5L1 425.5Z" fill="black"/>
<path d="M109.539 386.5L1 371L4.98307 395L109.539 386.5ZM109.539 386.5L1 425.5L4.98307 401.5L109.539 386.5Z" stroke="black"/>
</svg>
